<mxfile host="Electron" agent="Mozilla/5.0 (Windows NT 10.0; Win64; x64) AppleWebKit/537.36 (KHTML, like Gecko) draw.io/24.7.5 Chrome/126.0.6478.183 Electron/31.3.0 Safari/537.36" version="24.7.5" pages="6">
  <diagram name="Main TO-BE" id="g6Ii-7FAYiTRQ6rAsWxS">
    <mxGraphModel dx="-5" dy="1145" grid="0" gridSize="10" guides="1" tooltips="1" connect="1" arrows="1" fold="1" page="0" pageScale="1" pageWidth="850" pageHeight="1100" math="0" shadow="0">
      <root>
        <mxCell id="0" />
        <mxCell id="1" parent="0" />
        <mxCell id="bSlsCNtthOfruHYmhtNP-1" value="Start" style="ellipse;whiteSpace=wrap;html=1;aspect=fixed;fontStyle=1;fillColor=#fff2cc;strokeColor=#d6b656;" parent="1" vertex="1">
          <mxGeometry x="1568" y="-15" width="80" height="80" as="geometry" />
        </mxCell>
        <UserObject label="Initialize apps and read data" link="data:page/id,ruX4-K7DNZ9CoTYpRuX1" id="bSlsCNtthOfruHYmhtNP-2">
          <mxCell style="shape=process;whiteSpace=wrap;html=1;backgroundOutline=1;fillColor=#dae8fc;strokeColor=#6c8ebf;fontStyle=1;size=0.04339080459770107;" parent="1" vertex="1">
            <mxGeometry x="1734" y="-3" width="120" height="60" as="geometry" />
          </mxCell>
        </UserObject>
        <mxCell id="bSlsCNtthOfruHYmhtNP-3" style="edgeStyle=none;curved=1;rounded=0;orthogonalLoop=1;jettySize=auto;html=1;entryX=0;entryY=0;entryDx=0;entryDy=0;fontSize=12;startSize=8;endSize=8;" parent="1" edge="1">
          <mxGeometry relative="1" as="geometry">
            <mxPoint x="1648" y="24.709999999999994" as="sourcePoint" />
            <mxPoint x="1733" y="24.709999999999994" as="targetPoint" />
          </mxGeometry>
        </mxCell>
        <mxCell id="bSlsCNtthOfruHYmhtNP-4" style="edgeStyle=none;curved=1;rounded=0;orthogonalLoop=1;jettySize=auto;html=1;entryX=0;entryY=0;entryDx=0;entryDy=0;fontSize=12;startSize=8;endSize=8;" parent="1" edge="1">
          <mxGeometry relative="1" as="geometry">
            <mxPoint x="1854" y="24.83" as="sourcePoint" />
            <mxPoint x="1939" y="24.83" as="targetPoint" />
          </mxGeometry>
        </mxCell>
        <mxCell id="bSlsCNtthOfruHYmhtNP-18" style="edgeStyle=none;curved=1;rounded=0;orthogonalLoop=1;jettySize=auto;html=1;entryX=0;entryY=0;entryDx=0;entryDy=0;fontSize=12;startSize=8;endSize=8;" parent="1" edge="1">
          <mxGeometry relative="1" as="geometry">
            <mxPoint x="2063" y="26.859999999999978" as="sourcePoint" />
            <mxPoint x="2148" y="26.859999999999978" as="targetPoint" />
          </mxGeometry>
        </mxCell>
        <UserObject label="Close opened applications" link="data:page/id,w8vVBX8NN2MA-V3uxlel" id="bSlsCNtthOfruHYmhtNP-21">
          <mxCell style="shape=process;whiteSpace=wrap;html=1;backgroundOutline=1;fillColor=#dae8fc;strokeColor=#6c8ebf;fontStyle=1;size=0.04281609195402467;" parent="1" vertex="1">
            <mxGeometry x="2149" y="-3" width="120" height="60" as="geometry" />
          </mxCell>
        </UserObject>
        <UserObject label="Process Films" link="data:page/id,jKmA2GizDWWf2xkBfZPt" id="03r48G8rfKDm7N0-AbIw-1">
          <mxCell style="shape=process;whiteSpace=wrap;html=1;backgroundOutline=1;fillColor=#dae8fc;strokeColor=#6c8ebf;fontStyle=1" parent="1" vertex="1">
            <mxGeometry x="1941" y="-5" width="120" height="60" as="geometry" />
          </mxCell>
        </UserObject>
        <mxCell id="BpC50cQdxbMprjPpjHxn-1" value="End" style="ellipse;whiteSpace=wrap;html=1;aspect=fixed;fillColor=#fff2cc;strokeColor=#d6b656;fontStyle=1" parent="1" vertex="1">
          <mxGeometry x="2354" y="-13" width="80" height="80" as="geometry" />
        </mxCell>
        <mxCell id="BpC50cQdxbMprjPpjHxn-2" style="edgeStyle=none;curved=1;rounded=0;orthogonalLoop=1;jettySize=auto;html=1;entryX=0;entryY=0;entryDx=0;entryDy=0;fontSize=12;startSize=8;endSize=8;" parent="1" edge="1">
          <mxGeometry relative="1" as="geometry">
            <mxPoint x="2269" y="26.59999999999998" as="sourcePoint" />
            <mxPoint x="2354" y="26.59999999999998" as="targetPoint" />
          </mxGeometry>
        </mxCell>
      </root>
    </mxGraphModel>
  </diagram>
  <diagram id="ruX4-K7DNZ9CoTYpRuX1" name="Initialize apps and read data">
    <mxGraphModel dx="2328" dy="1445" grid="0" gridSize="10" guides="1" tooltips="1" connect="1" arrows="1" fold="1" page="0" pageScale="1" pageWidth="850" pageHeight="1100" math="0" shadow="0">
      <root>
        <mxCell id="0" />
        <mxCell id="1" parent="0" />
        <UserObject label="Start" link="data:page/id,g6Ii-7FAYiTRQ6rAsWxS" id="l4_VTKLaQJws45E8ukqv-2">
          <mxCell style="ellipse;whiteSpace=wrap;html=1;aspect=fixed;fontStyle=1;fillColor=#fff2cc;strokeColor=#d6b656;" parent="1" vertex="1">
            <mxGeometry x="-185" width="80" height="80" as="geometry" />
          </mxCell>
        </UserObject>
        <mxCell id="l4_VTKLaQJws45E8ukqv-17" value="Open IMDb page in browser" style="rounded=0;whiteSpace=wrap;html=1;fillColor=#dae8fc;strokeColor=#6c8ebf;fontStyle=1" parent="1" vertex="1">
          <mxGeometry x="984" y="40" width="120" height="60" as="geometry" />
        </mxCell>
        <mxCell id="l4_VTKLaQJws45E8ukqv-18" value="Edge" style="rounded=0;whiteSpace=wrap;html=1;strokeColor=#0e8088;fontStyle=1;fillColor=#b0e3e6;" parent="1" vertex="1">
          <mxGeometry x="984" width="120" height="40" as="geometry" />
        </mxCell>
        <mxCell id="l4_VTKLaQJws45E8ukqv-19" style="edgeStyle=none;curved=1;rounded=0;orthogonalLoop=1;jettySize=auto;html=1;entryX=0;entryY=0;entryDx=0;entryDy=0;fontSize=12;startSize=8;endSize=8;" parent="1" edge="1">
          <mxGeometry relative="1" as="geometry">
            <mxPoint x="1104" y="40" as="sourcePoint" />
            <mxPoint x="1189" y="40" as="targetPoint" />
          </mxGeometry>
        </mxCell>
        <mxCell id="l4_VTKLaQJws45E8ukqv-20" value="Logged in?" style="rhombus;whiteSpace=wrap;html=1;fillColor=#ffe6cc;strokeColor=#d79b00;fontStyle=1" parent="1" vertex="1">
          <mxGeometry x="1189" y="-10" width="100" height="100" as="geometry" />
        </mxCell>
        <mxCell id="l4_VTKLaQJws45E8ukqv-24" value="Click Sign in with IMDb" style="rounded=0;whiteSpace=wrap;html=1;fillColor=#dae8fc;strokeColor=#6c8ebf;fontStyle=1" parent="1" vertex="1">
          <mxGeometry x="1374" y="41" width="120" height="60" as="geometry" />
        </mxCell>
        <mxCell id="l4_VTKLaQJws45E8ukqv-25" value="Edge" style="rounded=0;whiteSpace=wrap;html=1;strokeColor=#0e8088;fontStyle=1;fillColor=#b0e3e6;" parent="1" vertex="1">
          <mxGeometry x="1374" y="1" width="120" height="40" as="geometry" />
        </mxCell>
        <mxCell id="l4_VTKLaQJws45E8ukqv-26" style="edgeStyle=none;curved=1;rounded=0;orthogonalLoop=1;jettySize=auto;html=1;entryX=0;entryY=0;entryDx=0;entryDy=0;fontSize=12;startSize=8;endSize=8;" parent="1" edge="1">
          <mxGeometry relative="1" as="geometry">
            <mxPoint x="1494" y="41" as="sourcePoint" />
            <mxPoint x="1579" y="41" as="targetPoint" />
          </mxGeometry>
        </mxCell>
        <mxCell id="l4_VTKLaQJws45E8ukqv-29" value="Edge" style="rounded=0;whiteSpace=wrap;html=1;strokeColor=#0e8088;fontStyle=1;fillColor=#b0e3e6;" parent="1" vertex="1">
          <mxGeometry x="1579" y="1.5" width="155" height="40" as="geometry" />
        </mxCell>
        <mxCell id="l4_VTKLaQJws45E8ukqv-31" value="Input the email adress" style="rounded=0;whiteSpace=wrap;html=1;fillColor=#dae8fc;strokeColor=#6c8ebf;fontStyle=1" parent="1" vertex="1">
          <mxGeometry x="1579" y="41.5" width="155" height="60" as="geometry" />
        </mxCell>
        <mxCell id="l4_VTKLaQJws45E8ukqv-37" style="edgeStyle=none;curved=1;rounded=0;orthogonalLoop=1;jettySize=auto;html=1;entryX=0;entryY=0;entryDx=0;entryDy=0;fontSize=12;startSize=8;endSize=8;" parent="1" edge="1">
          <mxGeometry relative="1" as="geometry">
            <mxPoint x="1734" y="41.5" as="sourcePoint" />
            <mxPoint x="1819" y="41.5" as="targetPoint" />
          </mxGeometry>
        </mxCell>
        <mxCell id="l4_VTKLaQJws45E8ukqv-39" value="Edge" style="rounded=0;whiteSpace=wrap;html=1;strokeColor=#0e8088;fontStyle=1;fillColor=#b0e3e6;" parent="1" vertex="1">
          <mxGeometry x="2044" y="2" width="120" height="40" as="geometry" />
        </mxCell>
        <mxCell id="l4_VTKLaQJws45E8ukqv-40" value="Click the &quot;Sign in&quot; button" style="rounded=0;whiteSpace=wrap;html=1;fillColor=#dae8fc;strokeColor=#6c8ebf;fontStyle=1" parent="1" vertex="1">
          <mxGeometry x="2044" y="42" width="120" height="60" as="geometry" />
        </mxCell>
        <mxCell id="l4_VTKLaQJws45E8ukqv-41" value="Home page?" style="rhombus;whiteSpace=wrap;html=1;fillColor=#ffe6cc;strokeColor=#d79b00;fontStyle=1" parent="1" vertex="1">
          <mxGeometry x="2253" y="-7" width="100" height="100" as="geometry" />
        </mxCell>
        <mxCell id="l4_VTKLaQJws45E8ukqv-42" style="edgeStyle=none;curved=1;rounded=0;orthogonalLoop=1;jettySize=auto;html=1;entryX=0;entryY=0;entryDx=0;entryDy=0;fontSize=12;startSize=8;endSize=8;" parent="1" edge="1">
          <mxGeometry relative="1" as="geometry">
            <mxPoint x="2353" y="42.70999999999998" as="sourcePoint" />
            <mxPoint x="2438" y="42.70999999999998" as="targetPoint" />
          </mxGeometry>
        </mxCell>
        <mxCell id="l4_VTKLaQJws45E8ukqv-43" value="Yes" style="edgeLabel;html=1;align=center;verticalAlign=middle;resizable=0;points=[];fontSize=12;" parent="l4_VTKLaQJws45E8ukqv-42" vertex="1" connectable="0">
          <mxGeometry x="-0.0013" relative="1" as="geometry">
            <mxPoint as="offset" />
          </mxGeometry>
        </mxCell>
        <mxCell id="l4_VTKLaQJws45E8ukqv-44" style="edgeStyle=none;curved=1;rounded=0;orthogonalLoop=1;jettySize=auto;html=1;fontSize=12;startSize=8;endSize=8;verticalAlign=middle;entryX=0.5;entryY=1;entryDx=0;entryDy=0;" parent="1" edge="1">
          <mxGeometry relative="1" as="geometry">
            <mxPoint x="2302.8299999999995" y="-7" as="sourcePoint" />
            <mxPoint x="2303" y="-94" as="targetPoint" />
          </mxGeometry>
        </mxCell>
        <mxCell id="l4_VTKLaQJws45E8ukqv-45" value="No" style="edgeLabel;html=1;align=center;verticalAlign=middle;resizable=0;points=[];fontSize=12;" parent="l4_VTKLaQJws45E8ukqv-44" vertex="1" connectable="0">
          <mxGeometry x="-0.2568" y="-1" relative="1" as="geometry">
            <mxPoint as="offset" />
          </mxGeometry>
        </mxCell>
        <mxCell id="l4_VTKLaQJws45E8ukqv-46" style="edgeStyle=orthogonalEdgeStyle;rounded=0;orthogonalLoop=1;jettySize=auto;html=1;fontSize=12;startSize=8;endSize=8;entryX=0.5;entryY=0;entryDx=0;entryDy=0;exitX=1;exitY=1;exitDx=0;exitDy=0;" parent="1" target="l4_VTKLaQJws45E8ukqv-52" edge="1">
          <mxGeometry relative="1" as="geometry">
            <mxPoint x="2363.0000000000005" y="-194.00000000000023" as="sourcePoint" />
            <mxPoint x="2499" y="-4" as="targetPoint" />
            <Array as="points">
              <mxPoint x="2479" y="-194" />
            </Array>
          </mxGeometry>
        </mxCell>
        <mxCell id="l4_VTKLaQJws45E8ukqv-47" style="edgeStyle=none;curved=1;rounded=0;orthogonalLoop=1;jettySize=auto;html=1;entryX=0;entryY=0;entryDx=0;entryDy=0;fontSize=12;startSize=8;endSize=8;" parent="1" edge="1">
          <mxGeometry relative="1" as="geometry">
            <mxPoint x="1289" y="40" as="sourcePoint" />
            <mxPoint x="1374" y="40" as="targetPoint" />
          </mxGeometry>
        </mxCell>
        <mxCell id="l4_VTKLaQJws45E8ukqv-48" value="&lt;font style=&quot;font-size: 18px;&quot;&gt;No&lt;/font&gt;" style="edgeLabel;html=1;align=center;verticalAlign=middle;resizable=0;points=[];fontSize=12;" parent="l4_VTKLaQJws45E8ukqv-47" vertex="1" connectable="0">
          <mxGeometry x="-0.0024" relative="1" as="geometry">
            <mxPoint as="offset" />
          </mxGeometry>
        </mxCell>
        <mxCell id="l4_VTKLaQJws45E8ukqv-49" style="edgeStyle=none;curved=1;rounded=0;orthogonalLoop=1;jettySize=auto;html=1;entryX=0;entryY=0.5;entryDx=0;entryDy=0;fontSize=12;startSize=8;endSize=8;" parent="1" target="l4_VTKLaQJws45E8ukqv-41" edge="1">
          <mxGeometry relative="1" as="geometry">
            <mxPoint x="2164" y="42" as="sourcePoint" />
            <mxPoint x="2249" y="42" as="targetPoint" />
          </mxGeometry>
        </mxCell>
        <mxCell id="l4_VTKLaQJws45E8ukqv-50" value="" style="endArrow=classic;html=1;rounded=0;fontSize=12;startSize=8;endSize=8;curved=0;edgeStyle=orthogonalEdgeStyle;entryX=0.5;entryY=1;entryDx=0;entryDy=0;exitX=0.5;exitY=1;exitDx=0;exitDy=0;" parent="1" source="l4_VTKLaQJws45E8ukqv-20" target="l4_VTKLaQJws45E8ukqv-41" edge="1">
          <mxGeometry width="50" height="50" relative="1" as="geometry">
            <mxPoint x="1257" y="174" as="sourcePoint" />
            <mxPoint x="2305" y="103" as="targetPoint" />
            <Array as="points">
              <mxPoint x="1239" y="216" />
              <mxPoint x="2303" y="216" />
            </Array>
          </mxGeometry>
        </mxCell>
        <mxCell id="l4_VTKLaQJws45E8ukqv-51" value="&lt;font style=&quot;font-size: 18px;&quot;&gt;Yes&lt;/font&gt;" style="edgeLabel;html=1;align=center;verticalAlign=middle;resizable=0;points=[];fontSize=12;" parent="l4_VTKLaQJws45E8ukqv-50" vertex="1" connectable="0">
          <mxGeometry x="-0.7437" y="-1" relative="1" as="geometry">
            <mxPoint as="offset" />
          </mxGeometry>
        </mxCell>
        <UserObject label="End" link="data:page/id,g6Ii-7FAYiTRQ6rAsWxS" id="l4_VTKLaQJws45E8ukqv-52">
          <mxCell style="ellipse;whiteSpace=wrap;html=1;aspect=fixed;fillColor=#fff2cc;strokeColor=#d6b656;fontStyle=1" parent="1" vertex="1">
            <mxGeometry x="2439" y="3" width="80" height="80" as="geometry" />
          </mxCell>
        </UserObject>
        <mxCell id="l4_VTKLaQJws45E8ukqv-59" style="edgeStyle=none;curved=1;rounded=0;orthogonalLoop=1;jettySize=auto;html=1;entryX=0;entryY=0;entryDx=0;entryDy=0;fontSize=12;startSize=8;endSize=8;" parent="1" edge="1">
          <mxGeometry relative="1" as="geometry">
            <mxPoint x="-104.00000000000011" y="40.00000000000001" as="sourcePoint" />
            <mxPoint x="-19" y="40.00000000000001" as="targetPoint" />
          </mxGeometry>
        </mxCell>
        <mxCell id="l4_VTKLaQJws45E8ukqv-60" style="edgeStyle=none;curved=1;rounded=0;orthogonalLoop=1;jettySize=auto;html=1;fontSize=12;startSize=8;endSize=8;exitX=0.994;exitY=1;exitDx=0;exitDy=0;exitPerimeter=0;" parent="1" edge="1" source="7Ap6quP4OAG97JNCgmz7-3">
          <mxGeometry relative="1" as="geometry">
            <mxPoint x="902.9999999999999" y="40.00000000000001" as="sourcePoint" />
            <mxPoint x="984" y="40" as="targetPoint" />
          </mxGeometry>
        </mxCell>
        <mxCell id="l4_VTKLaQJws45E8ukqv-69" value="Input: strLinkIMDb" style="rounded=0;whiteSpace=wrap;html=1;fillColor=#d5e8d4;strokeColor=#82b366;fontStyle=1" parent="1" vertex="1">
          <mxGeometry x="984" y="100" width="120" height="48" as="geometry" />
        </mxCell>
        <mxCell id="l4_VTKLaQJws45E8ukqv-71" value="&lt;p style=&quot;line-height: 120%;&quot;&gt;&lt;/p&gt;&lt;div style=&quot;&quot;&gt;&lt;span style=&quot;background-color: initial;&quot;&gt;Input: strAccountEmailAdress&lt;/span&gt;&lt;/div&gt;&lt;p&gt;&lt;/p&gt;" style="rounded=0;whiteSpace=wrap;html=1;fillColor=#d5e8d4;strokeColor=#82b366;fontStyle=1;align=center;" parent="1" vertex="1">
          <mxGeometry x="1579" y="100.5" width="155" height="40" as="geometry" />
        </mxCell>
        <mxCell id="O4I_OvGxzbpERsDwFsr5-2" value="Edge" style="rounded=0;whiteSpace=wrap;html=1;strokeColor=#0e8088;fontStyle=1;fillColor=#b0e3e6;" parent="1" vertex="1">
          <mxGeometry x="1818" y="2" width="140" height="40" as="geometry" />
        </mxCell>
        <mxCell id="O4I_OvGxzbpERsDwFsr5-3" value="Input the password" style="rounded=0;whiteSpace=wrap;html=1;fillColor=#dae8fc;strokeColor=#6c8ebf;fontStyle=1" parent="1" vertex="1">
          <mxGeometry x="1818" y="42" width="140" height="60" as="geometry" />
        </mxCell>
        <mxCell id="O4I_OvGxzbpERsDwFsr5-4" style="edgeStyle=none;curved=1;rounded=0;orthogonalLoop=1;jettySize=auto;html=1;entryX=0;entryY=0;entryDx=0;entryDy=0;fontSize=12;startSize=8;endSize=8;" parent="1" edge="1">
          <mxGeometry relative="1" as="geometry">
            <mxPoint x="1958" y="42" as="sourcePoint" />
            <mxPoint x="2043" y="42" as="targetPoint" />
          </mxGeometry>
        </mxCell>
        <mxCell id="O4I_OvGxzbpERsDwFsr5-5" value="Input: strAccountPassword" style="rounded=0;whiteSpace=wrap;html=1;fillColor=#d5e8d4;strokeColor=#82b366;fontStyle=1" parent="1" vertex="1">
          <mxGeometry x="1818" y="101" width="140" height="40" as="geometry" />
        </mxCell>
        <mxCell id="O4I_OvGxzbpERsDwFsr5-7" value="Open IMDb page in browser" style="rounded=0;whiteSpace=wrap;html=1;fillColor=#dae8fc;strokeColor=#6c8ebf;fontStyle=1" parent="1" vertex="1">
          <mxGeometry x="2243" y="-194" width="120" height="60" as="geometry" />
        </mxCell>
        <mxCell id="O4I_OvGxzbpERsDwFsr5-8" value="Edge" style="rounded=0;whiteSpace=wrap;html=1;strokeColor=#0e8088;fontStyle=1;fillColor=#b0e3e6;" parent="1" vertex="1">
          <mxGeometry x="2243" y="-234" width="120" height="40" as="geometry" />
        </mxCell>
        <mxCell id="O4I_OvGxzbpERsDwFsr5-9" value="Input: strLinkIMDb" style="rounded=0;whiteSpace=wrap;html=1;fillColor=#d5e8d4;strokeColor=#82b366;fontStyle=1" parent="1" vertex="1">
          <mxGeometry x="2243" y="-134" width="120" height="40" as="geometry" />
        </mxCell>
        <mxCell id="oXAJIV2uGlckcbsH6BrP-1" value="OUT:&lt;div&gt;&lt;span style=&quot;color: rgb(0, 0, 0); font-weight: 700;&quot;&gt;out_dtTemplateOutputTable&lt;/span&gt;&lt;span style=&quot;color: rgb(0, 0, 0); font-weight: 700;&quot;&gt;&lt;br&gt;&lt;/span&gt;&lt;/div&gt;&lt;div&gt;&lt;span style=&quot;color: rgb(0, 0, 0); font-weight: 700;&quot;&gt;out_dtMoviesInputTable&lt;/span&gt;&lt;/div&gt;" style="rounded=0;whiteSpace=wrap;html=1;fillColor=#f5f5f5;strokeColor=#666666;fontColor=#333333;dashed=1;fontStyle=0" parent="1" vertex="1">
          <mxGeometry x="2395.5" y="115" width="167" height="84" as="geometry" />
        </mxCell>
        <mxCell id="LySrJYUIZ4tdDjgMG6yE-3" value="Get assets" style="rounded=0;whiteSpace=wrap;html=1;fillColor=#dae8fc;strokeColor=#6c8ebf;fontStyle=1" parent="1" vertex="1">
          <mxGeometry x="-19" y="40" width="174" height="60" as="geometry" />
        </mxCell>
        <mxCell id="LySrJYUIZ4tdDjgMG6yE-4" value="Output:&amp;nbsp;&lt;div&gt;out_strOutputWorkbookPath&lt;br&gt;out_strInputWorkbookPath&lt;br&gt;&lt;/div&gt;&lt;div&gt;strLinkIMDb&lt;br&gt;&lt;/div&gt;&lt;div&gt;out_strMovieNotFoundError&lt;br&gt;&lt;/div&gt;&lt;div&gt;&lt;div&gt;out_strRecipientAdress&lt;br&gt;&lt;/div&gt;&lt;div&gt;out_strEmailSubject&lt;/div&gt;&lt;/div&gt;" style="rounded=0;whiteSpace=wrap;html=1;fillColor=#e1d5e7;strokeColor=#9673a6;fontStyle=1" parent="1" vertex="1">
          <mxGeometry x="-19" y="100" width="174" height="107" as="geometry" />
        </mxCell>
        <mxCell id="LySrJYUIZ4tdDjgMG6yE-5" value="Studio" style="rounded=0;whiteSpace=wrap;html=1;strokeColor=#0e8088;fontStyle=1;fillColor=#b0e3e6;" parent="1" vertex="1">
          <mxGeometry x="-19" width="174" height="40" as="geometry" />
        </mxCell>
        <mxCell id="E9vevBKNh3wo1kez2VcK-2" value="Get credentials" style="rounded=0;whiteSpace=wrap;html=1;fillColor=#dae8fc;strokeColor=#6c8ebf;fontStyle=1" parent="1" vertex="1">
          <mxGeometry x="242" y="40" width="174" height="60" as="geometry" />
        </mxCell>
        <mxCell id="E9vevBKNh3wo1kez2VcK-3" value="Output:&amp;nbsp;&lt;div&gt;strAccountEmailAdress&lt;br&gt;&lt;/div&gt;&lt;div&gt;strAccountPassword&lt;br&gt;&lt;/div&gt;" style="rounded=0;whiteSpace=wrap;html=1;fillColor=#e1d5e7;strokeColor=#9673a6;fontStyle=1" parent="1" vertex="1">
          <mxGeometry x="242" y="100" width="174" height="52" as="geometry" />
        </mxCell>
        <mxCell id="E9vevBKNh3wo1kez2VcK-4" value="Studio" style="rounded=0;whiteSpace=wrap;html=1;strokeColor=#0e8088;fontStyle=1;fillColor=#b0e3e6;" parent="1" vertex="1">
          <mxGeometry x="242" width="174" height="40" as="geometry" />
        </mxCell>
        <mxCell id="E9vevBKNh3wo1kez2VcK-6" style="edgeStyle=none;curved=1;rounded=0;orthogonalLoop=1;jettySize=auto;html=1;entryX=0;entryY=0;entryDx=0;entryDy=0;fontSize=12;startSize=8;endSize=8;" parent="1" edge="1">
          <mxGeometry relative="1" as="geometry">
            <mxPoint x="154.9999999999999" y="40.00000000000001" as="sourcePoint" />
            <mxPoint x="240" y="40.00000000000001" as="targetPoint" />
          </mxGeometry>
        </mxCell>
        <mxCell id="E9vevBKNh3wo1kez2VcK-7" style="edgeStyle=none;curved=1;rounded=0;orthogonalLoop=1;jettySize=auto;html=1;entryX=0;entryY=0;entryDx=0;entryDy=0;fontSize=12;startSize=8;endSize=8;" parent="1" edge="1">
          <mxGeometry relative="1" as="geometry">
            <mxPoint x="658.9999999999999" y="40.000000000000014" as="sourcePoint" />
            <mxPoint x="744" y="40.000000000000014" as="targetPoint" />
          </mxGeometry>
        </mxCell>
        <mxCell id="4tQDmRszAA8X27do6zRe-1" value="Build output data table with template" style="rounded=0;whiteSpace=wrap;html=1;fillColor=#dae8fc;strokeColor=#6c8ebf;fontStyle=1" parent="1" vertex="1">
          <mxGeometry x="501" y="40" width="158" height="60" as="geometry" />
        </mxCell>
        <mxCell id="4tQDmRszAA8X27do6zRe-2" value="Output: out_dtTemplateOutputTable" style="rounded=0;whiteSpace=wrap;html=1;fillColor=#e1d5e7;strokeColor=#9673a6;fontStyle=1" parent="1" vertex="1">
          <mxGeometry x="501" y="100" width="158" height="40" as="geometry" />
        </mxCell>
        <mxCell id="4tQDmRszAA8X27do6zRe-3" value="Studio" style="rounded=0;whiteSpace=wrap;html=1;strokeColor=#0e8088;fontStyle=1;fillColor=#b0e3e6;" parent="1" vertex="1">
          <mxGeometry x="501" width="158" height="40" as="geometry" />
        </mxCell>
        <mxCell id="C8v1ZJTH3I96jfRxtmLl-1" style="edgeStyle=none;curved=1;rounded=0;orthogonalLoop=1;jettySize=auto;html=1;entryX=0;entryY=0;entryDx=0;entryDy=0;fontSize=12;startSize=8;endSize=8;" parent="1" edge="1">
          <mxGeometry relative="1" as="geometry">
            <mxPoint x="415.9999999999999" y="40.000000000000014" as="sourcePoint" />
            <mxPoint x="501" y="40.000000000000014" as="targetPoint" />
          </mxGeometry>
        </mxCell>
        <mxCell id="7Ap6quP4OAG97JNCgmz7-1" value="Extract input movies from excel to input data table" style="rounded=0;whiteSpace=wrap;html=1;fillColor=#dae8fc;strokeColor=#6c8ebf;fontStyle=1" parent="1" vertex="1">
          <mxGeometry x="745" y="40" width="156" height="60" as="geometry" />
        </mxCell>
        <mxCell id="7Ap6quP4OAG97JNCgmz7-2" value="Output: out_dtMoviesInputTable" style="rounded=0;whiteSpace=wrap;html=1;fillColor=#e1d5e7;strokeColor=#9673a6;fontStyle=1" parent="1" vertex="1">
          <mxGeometry x="745" y="141" width="156" height="40" as="geometry" />
        </mxCell>
        <mxCell id="7Ap6quP4OAG97JNCgmz7-3" value="Studio" style="rounded=0;whiteSpace=wrap;html=1;strokeColor=#0e8088;fontStyle=1;fillColor=#b0e3e6;" parent="1" vertex="1">
          <mxGeometry x="745" width="156" height="40" as="geometry" />
        </mxCell>
        <mxCell id="aYEpeomK6poTrIzqIibg-1" value="Input: out_strInputWorkbookPath" style="rounded=0;whiteSpace=wrap;html=1;fillColor=#d5e8d4;strokeColor=#82b366;fontStyle=1" parent="1" vertex="1">
          <mxGeometry x="745" y="100.5" width="156" height="39.5" as="geometry" />
        </mxCell>
      </root>
    </mxGraphModel>
  </diagram>
  <diagram id="jKmA2GizDWWf2xkBfZPt" name="Process Films">
    <mxGraphModel dx="234" dy="1294" grid="0" gridSize="10" guides="1" tooltips="1" connect="1" arrows="1" fold="1" page="0" pageScale="1" pageWidth="850" pageHeight="1100" math="0" shadow="0">
      <root>
        <mxCell id="0" />
        <mxCell id="1" parent="0" />
        <mxCell id="7M-kJ9FpzyfJG7sSzKVE-1" style="edgeStyle=none;curved=1;rounded=0;orthogonalLoop=1;jettySize=auto;html=1;entryX=0;entryY=0.5;entryDx=0;entryDy=0;fontSize=12;startSize=8;endSize=8;" parent="1" target="7M-kJ9FpzyfJG7sSzKVE-2" edge="1">
          <mxGeometry relative="1" as="geometry">
            <mxPoint x="1846" y="27" as="sourcePoint" />
            <mxPoint x="1931" y="27" as="targetPoint" />
          </mxGeometry>
        </mxCell>
        <UserObject label="Search and rate movie" link="data:page/id,0IVJ0yKcwo-F8aywClvS" id="7M-kJ9FpzyfJG7sSzKVE-2">
          <mxCell style="shape=process;whiteSpace=wrap;html=1;backgroundOutline=1;fillColor=#dae8fc;strokeColor=#6c8ebf;fontStyle=1;size=0.05086206896551507;" parent="1" vertex="1">
            <mxGeometry x="1940" y="-3" width="120" height="60" as="geometry" />
          </mxCell>
        </UserObject>
        <mxCell id="7M-kJ9FpzyfJG7sSzKVE-3" style="edgeStyle=none;curved=1;rounded=0;orthogonalLoop=1;jettySize=auto;html=1;entryX=0;entryY=0;entryDx=0;entryDy=0;fontSize=12;startSize=8;endSize=8;" parent="1" edge="1">
          <mxGeometry relative="1" as="geometry">
            <mxPoint x="2060" y="24.709999999999994" as="sourcePoint" />
            <mxPoint x="2145" y="24.709999999999994" as="targetPoint" />
          </mxGeometry>
        </mxCell>
        <UserObject label="Read and save movie info" link="data:page/id,57PPhPq7-QRcSlqKobF7" id="7M-kJ9FpzyfJG7sSzKVE-4">
          <mxCell style="shape=process;whiteSpace=wrap;html=1;backgroundOutline=1;fillColor=#dae8fc;strokeColor=#6c8ebf;fontStyle=1;size=0.052586206896551836;" parent="1" vertex="1">
            <mxGeometry x="2340" y="-5" width="120" height="60" as="geometry" />
          </mxCell>
        </UserObject>
        <mxCell id="7M-kJ9FpzyfJG7sSzKVE-5" style="edgeStyle=none;curved=1;rounded=0;orthogonalLoop=1;jettySize=auto;html=1;entryX=0;entryY=0;entryDx=0;entryDy=0;fontSize=12;startSize=8;endSize=8;" parent="1" edge="1">
          <mxGeometry relative="1" as="geometry">
            <mxPoint x="2460" y="19.70999999999998" as="sourcePoint" />
            <mxPoint x="2545" y="19.70999999999998" as="targetPoint" />
          </mxGeometry>
        </mxCell>
        <mxCell id="7M-kJ9FpzyfJG7sSzKVE-6" value="Movie found?" style="rhombus;whiteSpace=wrap;html=1;fillColor=#ffe6cc;strokeColor=#d79b00;fontStyle=1" parent="1" vertex="1">
          <mxGeometry x="2145" y="-25" width="100" height="100" as="geometry" />
        </mxCell>
        <mxCell id="7M-kJ9FpzyfJG7sSzKVE-7" style="edgeStyle=none;curved=1;rounded=0;orthogonalLoop=1;jettySize=auto;html=1;entryX=0;entryY=1;entryDx=0;entryDy=0;fontSize=12;startSize=8;endSize=8;" parent="1" edge="1">
          <mxGeometry relative="1" as="geometry">
            <mxPoint x="2245" y="24.71" as="sourcePoint" />
            <mxPoint x="2340" y="25" as="targetPoint" />
          </mxGeometry>
        </mxCell>
        <mxCell id="7M-kJ9FpzyfJG7sSzKVE-8" value="&lt;font style=&quot;font-size: 18px;&quot;&gt;Yes&lt;/font&gt;" style="edgeLabel;html=1;align=center;verticalAlign=middle;resizable=0;points=[];fontSize=12;" parent="7M-kJ9FpzyfJG7sSzKVE-7" vertex="1" connectable="0">
          <mxGeometry x="-0.0185" y="-1" relative="1" as="geometry">
            <mxPoint as="offset" />
          </mxGeometry>
        </mxCell>
        <mxCell id="7M-kJ9FpzyfJG7sSzKVE-9" style="edgeStyle=orthogonalEdgeStyle;rounded=0;orthogonalLoop=1;jettySize=auto;html=1;fontSize=12;startSize=8;endSize=8;entryX=0.5;entryY=1;entryDx=0;entryDy=0;exitX=0.5;exitY=1;exitDx=0;exitDy=0;" parent="1" source="7M-kJ9FpzyfJG7sSzKVE-6" target="WClU35bsI_FbeTiYlPMX-1" edge="1">
          <mxGeometry relative="1" as="geometry">
            <mxPoint x="2081.0000000000005" y="78" as="sourcePoint" />
            <mxPoint x="2737.82" y="81" as="targetPoint" />
            <Array as="points">
              <mxPoint x="2195" y="88" />
              <mxPoint x="2194" y="88" />
              <mxPoint x="2194" y="149" />
              <mxPoint x="2605" y="149" />
            </Array>
          </mxGeometry>
        </mxCell>
        <mxCell id="7M-kJ9FpzyfJG7sSzKVE-10" value="&lt;font style=&quot;font-size: 18px;&quot;&gt;No&lt;/font&gt;" style="edgeLabel;html=1;align=center;verticalAlign=middle;resizable=0;points=[];fontSize=12;" parent="7M-kJ9FpzyfJG7sSzKVE-9" vertex="1" connectable="0">
          <mxGeometry x="-0.3" y="-1" relative="1" as="geometry">
            <mxPoint x="-32" y="-1" as="offset" />
          </mxGeometry>
        </mxCell>
        <mxCell id="7M-kJ9FpzyfJG7sSzKVE-11" value="Anymore movies?" style="rhombus;whiteSpace=wrap;html=1;fillColor=#ffe6cc;strokeColor=#d79b00;fontStyle=1" parent="1" vertex="1">
          <mxGeometry x="2956" y="-30" width="100" height="100" as="geometry" />
        </mxCell>
        <mxCell id="7M-kJ9FpzyfJG7sSzKVE-12" value="" style="endArrow=classic;html=1;rounded=0;fontSize=12;startSize=8;endSize=8;edgeStyle=orthogonalEdgeStyle;entryX=0.5;entryY=0;entryDx=0;entryDy=0;exitX=0.5;exitY=0;exitDx=0;exitDy=0;" parent="1" source="7M-kJ9FpzyfJG7sSzKVE-11" target="7M-kJ9FpzyfJG7sSzKVE-2" edge="1">
          <mxGeometry width="50" height="50" relative="1" as="geometry">
            <mxPoint x="2595" y="-30.5" as="sourcePoint" />
            <mxPoint x="1785" y="-14" as="targetPoint" />
            <Array as="points">
              <mxPoint x="3006" y="-58" />
              <mxPoint x="2000" y="-58" />
            </Array>
          </mxGeometry>
        </mxCell>
        <mxCell id="7M-kJ9FpzyfJG7sSzKVE-14" style="edgeStyle=none;curved=1;rounded=0;orthogonalLoop=1;jettySize=auto;html=1;entryX=0;entryY=0;entryDx=0;entryDy=0;fontSize=12;startSize=8;endSize=8;" parent="1" edge="1">
          <mxGeometry relative="1" as="geometry">
            <mxPoint x="3056" y="19.859999999999978" as="sourcePoint" />
            <mxPoint x="3141" y="19.859999999999978" as="targetPoint" />
          </mxGeometry>
        </mxCell>
        <mxCell id="7M-kJ9FpzyfJG7sSzKVE-15" value="&lt;font style=&quot;font-size: 18px;&quot;&gt;No&lt;/font&gt;" style="edgeLabel;html=1;align=center;verticalAlign=middle;resizable=0;points=[];fontSize=12;" parent="1" vertex="1" connectable="0">
          <mxGeometry x="3093.0011763828643" y="20" as="geometry" />
        </mxCell>
        <mxCell id="UGRRmMFsnHfLG923bb8Z-3" style="edgeStyle=none;curved=1;rounded=0;orthogonalLoop=1;jettySize=auto;html=1;entryX=0;entryY=1;entryDx=0;entryDy=0;fontSize=12;startSize=8;endSize=8;" parent="1" source="7M-kJ9FpzyfJG7sSzKVE-16" edge="1">
          <mxGeometry relative="1" as="geometry">
            <mxPoint x="1726" y="28" as="targetPoint" />
          </mxGeometry>
        </mxCell>
        <UserObject label="Start" link="data:page/id,g6Ii-7FAYiTRQ6rAsWxS" id="7M-kJ9FpzyfJG7sSzKVE-16">
          <mxCell style="ellipse;whiteSpace=wrap;html=1;aspect=fixed;fontStyle=1;fillColor=#fff2cc;strokeColor=#d6b656;" parent="1" vertex="1">
            <mxGeometry x="1562" y="-13" width="80" height="80" as="geometry" />
          </mxCell>
        </UserObject>
        <UserObject label="End" link="data:page/id,g6Ii-7FAYiTRQ6rAsWxS" id="7M-kJ9FpzyfJG7sSzKVE-17">
          <mxCell style="ellipse;whiteSpace=wrap;html=1;aspect=fixed;fillColor=#fff2cc;strokeColor=#d6b656;fontStyle=1" parent="1" vertex="1">
            <mxGeometry x="3142" y="-20" width="80" height="80" as="geometry" />
          </mxCell>
        </UserObject>
        <mxCell id="rWaX_CcEWR9NoN8COIqN-1" value="IN:&lt;div&gt;&lt;span style=&quot;color: rgb(0, 0, 0); font-weight: 700;&quot;&gt;in_strMovieNotFoundError&lt;/span&gt;&lt;span style=&quot;color: rgb(0, 0, 0); font-weight: 700;&quot;&gt;&lt;br&gt;&lt;/span&gt;&lt;/div&gt;&lt;div&gt;&lt;span style=&quot;color: rgb(0, 0, 0); font-weight: 700;&quot;&gt;in_dtTemplateTable&lt;/span&gt;&lt;/div&gt;&lt;div&gt;&lt;span style=&quot;color: rgb(0, 0, 0); font-weight: 700;&quot;&gt;in_&lt;/span&gt;&lt;span style=&quot;color: rgb(0, 0, 0); font-weight: 700; background-color: initial;&quot;&gt;dtMoviesInputTable&lt;/span&gt;&lt;/div&gt;" style="rounded=0;whiteSpace=wrap;html=1;fillColor=#f5f5f5;strokeColor=#666666;fontColor=#333333;dashed=1;fontStyle=0" parent="1" vertex="1">
          <mxGeometry x="1489" y="112" width="161" height="95" as="geometry" />
        </mxCell>
        <mxCell id="YxQAYbe4gwufsS17q-aA-1" value="OUT:&lt;div&gt;&lt;span style=&quot;color: rgb(0, 0, 0); font-weight: 700;&quot;&gt;out_dtMoviesOutputTable&lt;/span&gt;&lt;/div&gt;" style="rounded=0;whiteSpace=wrap;html=1;fillColor=#f5f5f5;strokeColor=#666666;fontColor=#333333;dashed=1;fontStyle=0" parent="1" vertex="1">
          <mxGeometry x="3103" y="96" width="170" height="60" as="geometry" />
        </mxCell>
        <mxCell id="MfXz2QX_yj5KEe_cRfs6-4" style="edgeStyle=none;curved=1;rounded=0;orthogonalLoop=1;jettySize=auto;html=1;entryX=0;entryY=0;entryDx=0;entryDy=0;fontSize=12;startSize=8;endSize=8;" parent="1" edge="1">
          <mxGeometry relative="1" as="geometry">
            <mxPoint x="2871" y="19.22999999999998" as="sourcePoint" />
            <mxPoint x="2956" y="19.22999999999998" as="targetPoint" />
          </mxGeometry>
        </mxCell>
        <mxCell id="MfXz2QX_yj5KEe_cRfs6-5" value="Verify if there are movies left" style="rounded=0;whiteSpace=wrap;html=1;fillColor=#dae8fc;strokeColor=#6c8ebf;fontStyle=1" parent="1" vertex="1">
          <mxGeometry x="2751" y="20" width="120" height="60" as="geometry" />
        </mxCell>
        <mxCell id="MfXz2QX_yj5KEe_cRfs6-6" value="Studio" style="rounded=0;whiteSpace=wrap;html=1;strokeColor=#0e8088;fontStyle=1;fillColor=#b0e3e6;" parent="1" vertex="1">
          <mxGeometry x="2751" y="-20" width="120" height="40" as="geometry" />
        </mxCell>
        <mxCell id="ZN5TBquR_hCb59VdD3hi-1" value="Get rows count" style="rounded=0;whiteSpace=wrap;html=1;fillColor=#dae8fc;strokeColor=#6c8ebf;fontStyle=1" parent="1" vertex="1">
          <mxGeometry x="1726" y="27" width="120" height="60" as="geometry" />
        </mxCell>
        <mxCell id="ZN5TBquR_hCb59VdD3hi-2" value="Studio" style="rounded=0;whiteSpace=wrap;html=1;strokeColor=#0e8088;fontStyle=1;fillColor=#b0e3e6;" parent="1" vertex="1">
          <mxGeometry x="1726" y="-13" width="120" height="40" as="geometry" />
        </mxCell>
        <mxCell id="WClU35bsI_FbeTiYlPMX-1" value="Increment RowIndex for the next movie" style="rounded=0;whiteSpace=wrap;html=1;fillColor=#dae8fc;strokeColor=#6c8ebf;fontStyle=1" parent="1" vertex="1">
          <mxGeometry x="2545" y="20" width="120" height="60" as="geometry" />
        </mxCell>
        <mxCell id="WClU35bsI_FbeTiYlPMX-2" value="Studio" style="rounded=0;whiteSpace=wrap;html=1;strokeColor=#0e8088;fontStyle=1;fillColor=#b0e3e6;" parent="1" vertex="1">
          <mxGeometry x="2545" y="-20" width="120" height="40" as="geometry" />
        </mxCell>
        <mxCell id="WClU35bsI_FbeTiYlPMX-6" style="edgeStyle=none;curved=1;rounded=0;orthogonalLoop=1;jettySize=auto;html=1;entryX=0;entryY=0;entryDx=0;entryDy=0;fontSize=12;startSize=8;endSize=8;" parent="1" edge="1">
          <mxGeometry relative="1" as="geometry">
            <mxPoint x="2665" y="19.22999999999998" as="sourcePoint" />
            <mxPoint x="2750" y="19.22999999999998" as="targetPoint" />
          </mxGeometry>
        </mxCell>
      </root>
    </mxGraphModel>
  </diagram>
  <diagram id="0IVJ0yKcwo-F8aywClvS" name="Search and rate movie">
    <mxGraphModel dx="-1366" dy="1294" grid="0" gridSize="10" guides="1" tooltips="1" connect="1" arrows="1" fold="1" page="0" pageScale="1" pageWidth="850" pageHeight="1100" math="0" shadow="0">
      <root>
        <mxCell id="0" />
        <mxCell id="1" parent="0" />
        <mxCell id="6Yr54XhctrXf2k9YNCu--1" value="Get current movie name from input datatable" style="rounded=0;whiteSpace=wrap;html=1;fillColor=#dae8fc;strokeColor=#6c8ebf;fontStyle=1" parent="1" vertex="1">
          <mxGeometry x="3152" y="29" width="131" height="60" as="geometry" />
        </mxCell>
        <mxCell id="6Yr54XhctrXf2k9YNCu--2" value="Studio" style="rounded=0;whiteSpace=wrap;html=1;strokeColor=#0e8088;fontStyle=1;fillColor=#b0e3e6;" parent="1" vertex="1">
          <mxGeometry x="3152" y="-11" width="131" height="40" as="geometry" />
        </mxCell>
        <mxCell id="6Yr54XhctrXf2k9YNCu--5" style="edgeStyle=none;curved=1;rounded=0;orthogonalLoop=1;jettySize=auto;html=1;entryX=0;entryY=0;entryDx=0;entryDy=0;fontSize=12;startSize=8;endSize=8;" parent="1" edge="1">
          <mxGeometry relative="1" as="geometry">
            <mxPoint x="3726" y="31" as="sourcePoint" />
            <mxPoint x="3801" y="31" as="targetPoint" />
          </mxGeometry>
        </mxCell>
        <mxCell id="6Yr54XhctrXf2k9YNCu--8" value="Insert movie name in output datatable" style="rounded=0;whiteSpace=wrap;html=1;fillColor=#dae8fc;strokeColor=#6c8ebf;fontStyle=1" parent="1" vertex="1">
          <mxGeometry x="3369" y="31" width="140" height="60" as="geometry" />
        </mxCell>
        <mxCell id="6Yr54XhctrXf2k9YNCu--9" value="Input:&lt;div&gt;io_dtMoviesOutputTable&lt;br&gt;&lt;/div&gt;&lt;div&gt;&amp;nbsp;strMovieName&lt;/div&gt;" style="rounded=0;whiteSpace=wrap;html=1;fillColor=#d5e8d4;strokeColor=#82b366;fontStyle=1" parent="1" vertex="1">
          <mxGeometry x="3369" y="91" width="140" height="40" as="geometry" />
        </mxCell>
        <mxCell id="6Yr54XhctrXf2k9YNCu--10" value="Studio" style="rounded=0;whiteSpace=wrap;html=1;strokeColor=#0e8088;fontStyle=1;fillColor=#b0e3e6;" parent="1" vertex="1">
          <mxGeometry x="3369" y="-9" width="140" height="40" as="geometry" />
        </mxCell>
        <mxCell id="6Yr54XhctrXf2k9YNCu--11" style="edgeStyle=none;curved=1;rounded=0;orthogonalLoop=1;jettySize=auto;html=1;entryX=0;entryY=0;entryDx=0;entryDy=0;fontSize=12;startSize=8;endSize=8;" parent="1" edge="1">
          <mxGeometry relative="1" as="geometry">
            <mxPoint x="3283" y="30" as="sourcePoint" />
            <mxPoint x="3368" y="30" as="targetPoint" />
          </mxGeometry>
        </mxCell>
        <mxCell id="6Yr54XhctrXf2k9YNCu--13" value="Output: strMovieName" style="rounded=0;whiteSpace=wrap;html=1;fillColor=#e1d5e7;strokeColor=#9673a6;fontStyle=1" parent="1" vertex="1">
          <mxGeometry x="3152" y="130" width="131" height="40" as="geometry" />
        </mxCell>
        <mxCell id="6Yr54XhctrXf2k9YNCu--17" value="Search current movie on IMDb" style="rounded=0;whiteSpace=wrap;html=1;fillColor=#dae8fc;strokeColor=#6c8ebf;fontStyle=1" parent="1" vertex="1">
          <mxGeometry x="3801" y="31" width="120" height="60" as="geometry" />
        </mxCell>
        <mxCell id="6Yr54XhctrXf2k9YNCu--18" value="Input: strMovieName" style="rounded=0;whiteSpace=wrap;html=1;fillColor=#d5e8d4;strokeColor=#82b366;fontStyle=1" parent="1" vertex="1">
          <mxGeometry x="3801" y="91" width="120" height="40" as="geometry" />
        </mxCell>
        <mxCell id="6Yr54XhctrXf2k9YNCu--19" value="Edge" style="rounded=0;whiteSpace=wrap;html=1;strokeColor=#0e8088;fontStyle=1;fillColor=#b0e3e6;" parent="1" vertex="1">
          <mxGeometry x="3801" y="-9" width="120" height="40" as="geometry" />
        </mxCell>
        <mxCell id="6Yr54XhctrXf2k9YNCu--23" style="edgeStyle=none;curved=1;rounded=0;orthogonalLoop=1;jettySize=auto;html=1;entryX=0;entryY=0;entryDx=0;entryDy=0;fontSize=12;startSize=8;endSize=8;" parent="1" edge="1">
          <mxGeometry relative="1" as="geometry">
            <mxPoint x="3921" y="31" as="sourcePoint" />
            <mxPoint x="4006" y="31" as="targetPoint" />
          </mxGeometry>
        </mxCell>
        <UserObject label="Start" link="data:page/id,jKmA2GizDWWf2xkBfZPt" id="6Yr54XhctrXf2k9YNCu--24">
          <mxCell style="ellipse;whiteSpace=wrap;html=1;aspect=fixed;fontStyle=1;fillColor=#fff2cc;strokeColor=#d6b656;" parent="1" vertex="1">
            <mxGeometry x="2987" y="-9" width="80" height="80" as="geometry" />
          </mxCell>
        </UserObject>
        <mxCell id="6Yr54XhctrXf2k9YNCu--26" value="Movie found?" style="rhombus;whiteSpace=wrap;html=1;fillColor=#ffe6cc;strokeColor=#d79b00;fontStyle=1" parent="1" vertex="1">
          <mxGeometry x="4006" y="-19" width="100" height="100" as="geometry" />
        </mxCell>
        <mxCell id="6Yr54XhctrXf2k9YNCu--27" style="edgeStyle=none;curved=1;rounded=0;orthogonalLoop=1;jettySize=auto;html=1;fontSize=12;startSize=8;endSize=8;entryX=0.5;entryY=0;entryDx=0;entryDy=0;exitX=0.5;exitY=1;exitDx=0;exitDy=0;" parent="1" source="6Yr54XhctrXf2k9YNCu--26" edge="1">
          <mxGeometry relative="1" as="geometry">
            <mxPoint x="4055" y="100" as="sourcePoint" />
            <mxPoint x="4056" y="161" as="targetPoint" />
          </mxGeometry>
        </mxCell>
        <mxCell id="6Yr54XhctrXf2k9YNCu--28" value="&lt;font style=&quot;font-size: 18px;&quot;&gt;No&lt;/font&gt;" style="edgeLabel;html=1;align=center;verticalAlign=middle;resizable=0;points=[];fontSize=12;" parent="6Yr54XhctrXf2k9YNCu--27" vertex="1" connectable="0">
          <mxGeometry x="-0.3" y="-1" relative="1" as="geometry">
            <mxPoint as="offset" />
          </mxGeometry>
        </mxCell>
        <mxCell id="6Yr54XhctrXf2k9YNCu--29" style="edgeStyle=none;curved=1;rounded=0;orthogonalLoop=1;jettySize=auto;html=1;entryX=0;entryY=0;entryDx=0;entryDy=0;fontSize=12;startSize=8;endSize=8;" parent="1" target="Dg47NCKiAwMoH3ZVOtFg-10" edge="1">
          <mxGeometry relative="1" as="geometry">
            <mxPoint x="4106" y="31" as="sourcePoint" />
            <mxPoint x="4201" y="31.29" as="targetPoint" />
          </mxGeometry>
        </mxCell>
        <mxCell id="6Yr54XhctrXf2k9YNCu--30" value="&lt;font style=&quot;font-size: 18px;&quot;&gt;Yes&lt;/font&gt;" style="edgeLabel;html=1;align=center;verticalAlign=middle;resizable=0;points=[];fontSize=12;" parent="6Yr54XhctrXf2k9YNCu--29" vertex="1" connectable="0">
          <mxGeometry x="-0.0185" y="-1" relative="1" as="geometry">
            <mxPoint as="offset" />
          </mxGeometry>
        </mxCell>
        <mxCell id="6Yr54XhctrXf2k9YNCu--31" value="Click on found movie" style="rounded=0;whiteSpace=wrap;html=1;fillColor=#dae8fc;strokeColor=#6c8ebf;fontStyle=1" parent="1" vertex="1">
          <mxGeometry x="4421" y="32" width="120" height="60" as="geometry" />
        </mxCell>
        <mxCell id="6Yr54XhctrXf2k9YNCu--32" value="Edge" style="rounded=0;whiteSpace=wrap;html=1;strokeColor=#0e8088;fontStyle=1;fillColor=#b0e3e6;" parent="1" vertex="1">
          <mxGeometry x="4421" y="-8" width="120" height="40" as="geometry" />
        </mxCell>
        <mxCell id="6Yr54XhctrXf2k9YNCu--33" style="edgeStyle=none;curved=1;rounded=0;orthogonalLoop=1;jettySize=auto;html=1;entryX=0;entryY=0;entryDx=0;entryDy=0;fontSize=12;startSize=8;endSize=8;" parent="1" edge="1">
          <mxGeometry relative="1" as="geometry">
            <mxPoint x="4541" y="32.00000000000001" as="sourcePoint" />
            <mxPoint x="4626" y="32.00000000000001" as="targetPoint" />
          </mxGeometry>
        </mxCell>
        <mxCell id="6Yr54XhctrXf2k9YNCu--35" value="Movie already rated?" style="rhombus;whiteSpace=wrap;html=1;fillColor=#ffe6cc;strokeColor=#d79b00;fontStyle=1" parent="1" vertex="1">
          <mxGeometry x="4626" y="-18" width="100" height="100" as="geometry" />
        </mxCell>
        <mxCell id="6Yr54XhctrXf2k9YNCu--36" style="edgeStyle=none;curved=1;rounded=0;orthogonalLoop=1;jettySize=auto;html=1;entryX=0;entryY=1;entryDx=0;entryDy=0;fontSize=12;startSize=8;endSize=8;" parent="1" edge="1">
          <mxGeometry relative="1" as="geometry">
            <mxPoint x="4726" y="32" as="sourcePoint" />
            <mxPoint x="4821" y="32.29" as="targetPoint" />
          </mxGeometry>
        </mxCell>
        <mxCell id="6Yr54XhctrXf2k9YNCu--37" value="&lt;font style=&quot;font-size: 18px;&quot;&gt;Yes&lt;/font&gt;" style="edgeLabel;html=1;align=center;verticalAlign=middle;resizable=0;points=[];fontSize=12;" parent="6Yr54XhctrXf2k9YNCu--36" vertex="1" connectable="0">
          <mxGeometry x="-0.0185" y="-1" relative="1" as="geometry">
            <mxPoint as="offset" />
          </mxGeometry>
        </mxCell>
        <mxCell id="6Yr54XhctrXf2k9YNCu--38" style="edgeStyle=orthogonalEdgeStyle;rounded=0;orthogonalLoop=1;jettySize=auto;html=1;fontSize=12;startSize=8;endSize=8;entryX=0.5;entryY=0;entryDx=0;entryDy=0;" parent="1" edge="1">
          <mxGeometry relative="1" as="geometry">
            <mxPoint x="4676" y="-18" as="sourcePoint" />
            <mxPoint x="5088.14" y="-8" as="targetPoint" />
            <Array as="points">
              <mxPoint x="4676.14" y="-90" />
              <mxPoint x="5088.14" y="-90" />
            </Array>
          </mxGeometry>
        </mxCell>
        <mxCell id="6Yr54XhctrXf2k9YNCu--39" value="&lt;font style=&quot;font-size: 18px;&quot;&gt;No&lt;/font&gt;" style="edgeLabel;html=1;align=center;verticalAlign=middle;resizable=0;points=[];fontSize=12;" parent="6Yr54XhctrXf2k9YNCu--38" vertex="1" connectable="0">
          <mxGeometry x="-0.3" y="-1" relative="1" as="geometry">
            <mxPoint x="-102" y="1" as="offset" />
          </mxGeometry>
        </mxCell>
        <mxCell id="6Yr54XhctrXf2k9YNCu--40" value="Remove movie rating" style="rounded=0;whiteSpace=wrap;html=1;fillColor=#dae8fc;strokeColor=#6c8ebf;fontStyle=1" parent="1" vertex="1">
          <mxGeometry x="4822" y="32" width="120" height="60" as="geometry" />
        </mxCell>
        <mxCell id="6Yr54XhctrXf2k9YNCu--41" value="Edge" style="rounded=0;whiteSpace=wrap;html=1;strokeColor=#0e8088;fontStyle=1;fillColor=#b0e3e6;" parent="1" vertex="1">
          <mxGeometry x="4822" y="-8" width="120" height="40" as="geometry" />
        </mxCell>
        <mxCell id="6Yr54XhctrXf2k9YNCu--47" style="edgeStyle=none;curved=1;rounded=0;orthogonalLoop=1;jettySize=auto;html=1;entryX=0;entryY=0;entryDx=0;entryDy=0;fontSize=12;startSize=8;endSize=8;" parent="1" edge="1">
          <mxGeometry relative="1" as="geometry">
            <mxPoint x="4942" y="32.000000000000014" as="sourcePoint" />
            <mxPoint x="5027" y="32.000000000000014" as="targetPoint" />
          </mxGeometry>
        </mxCell>
        <mxCell id="6Yr54XhctrXf2k9YNCu--49" value="Rate movie with coresponding grade" style="rounded=0;whiteSpace=wrap;html=1;fillColor=#dae8fc;strokeColor=#6c8ebf;fontStyle=1" parent="1" vertex="1">
          <mxGeometry x="5028" y="32" width="120" height="60" as="geometry" />
        </mxCell>
        <mxCell id="6Yr54XhctrXf2k9YNCu--50" value="Input: strMovieGrade" style="rounded=0;whiteSpace=wrap;html=1;fillColor=#d5e8d4;strokeColor=#82b366;fontStyle=1" parent="1" vertex="1">
          <mxGeometry x="5028" y="92" width="120" height="40" as="geometry" />
        </mxCell>
        <mxCell id="6Yr54XhctrXf2k9YNCu--51" value="Edge" style="rounded=0;whiteSpace=wrap;html=1;strokeColor=#0e8088;fontStyle=1;fillColor=#b0e3e6;" parent="1" vertex="1">
          <mxGeometry x="5028" y="-8" width="120" height="40" as="geometry" />
        </mxCell>
        <UserObject label="End" link="data:page/id,jKmA2GizDWWf2xkBfZPt" id="6Yr54XhctrXf2k9YNCu--55">
          <mxCell style="ellipse;whiteSpace=wrap;html=1;aspect=fixed;fillColor=#fff2cc;strokeColor=#d6b656;fontStyle=1" parent="1" vertex="1">
            <mxGeometry x="5234" y="-8" width="80" height="80" as="geometry" />
          </mxCell>
        </UserObject>
        <mxCell id="6Yr54XhctrXf2k9YNCu--56" style="edgeStyle=none;curved=1;rounded=0;orthogonalLoop=1;jettySize=auto;html=1;entryX=0;entryY=0;entryDx=0;entryDy=0;fontSize=12;startSize=8;endSize=8;" parent="1" edge="1">
          <mxGeometry relative="1" as="geometry">
            <mxPoint x="5148" y="32.000000000000014" as="sourcePoint" />
            <mxPoint x="5233" y="32.000000000000014" as="targetPoint" />
          </mxGeometry>
        </mxCell>
        <mxCell id="6Yr54XhctrXf2k9YNCu--59" value="Write error log message in datatable &quot;BE&quot; column" style="rounded=0;whiteSpace=wrap;html=1;fillColor=#dae8fc;strokeColor=#6c8ebf;fontStyle=1" parent="1" vertex="1">
          <mxGeometry x="3979.5" y="201" width="153" height="60" as="geometry" />
        </mxCell>
        <mxCell id="6Yr54XhctrXf2k9YNCu--60" value="Input: strMovieNotFoundError&lt;div&gt;io_dtMoviesOutputTable&lt;br&gt;&lt;/div&gt;" style="rounded=0;whiteSpace=wrap;html=1;fillColor=#d5e8d4;strokeColor=#82b366;fontStyle=1" parent="1" vertex="1">
          <mxGeometry x="3979.5" y="261" width="153" height="47" as="geometry" />
        </mxCell>
        <mxCell id="6Yr54XhctrXf2k9YNCu--61" value="Studio" style="rounded=0;whiteSpace=wrap;html=1;strokeColor=#0e8088;fontStyle=1;fillColor=#b0e3e6;" parent="1" vertex="1">
          <mxGeometry x="3979.5" y="161" width="153" height="40" as="geometry" />
        </mxCell>
        <mxCell id="6Yr54XhctrXf2k9YNCu--65" value="BE00x: Movie not found" style="rounded=0;whiteSpace=wrap;html=1;fillColor=#f8cecc;strokeColor=#b85450;fontStyle=1" parent="1" vertex="1">
          <mxGeometry x="4421" y="170" width="118" height="60" as="geometry" />
        </mxCell>
        <mxCell id="6Yr54XhctrXf2k9YNCu--66" value="" style="endArrow=classic;html=1;rounded=0;fontSize=12;startSize=8;endSize=8;curved=1;entryX=0;entryY=0;entryDx=0;entryDy=0;exitX=1;exitY=1;exitDx=0;exitDy=0;" parent="1" edge="1">
          <mxGeometry width="50" height="50" relative="1" as="geometry">
            <mxPoint x="4132.5" y="201" as="sourcePoint" />
            <mxPoint x="4217.5" y="201" as="targetPoint" />
          </mxGeometry>
        </mxCell>
        <mxCell id="8AfcieqfiF-N1aNNP7Y9-4" style="edgeStyle=none;curved=1;rounded=0;orthogonalLoop=1;jettySize=auto;html=1;entryX=0;entryY=0;entryDx=0;entryDy=0;fontSize=12;startSize=8;endSize=8;" parent="1" edge="1">
          <mxGeometry relative="1" as="geometry">
            <mxPoint x="3067" y="29" as="sourcePoint" />
            <mxPoint x="3152" y="29" as="targetPoint" />
          </mxGeometry>
        </mxCell>
        <mxCell id="Dg47NCKiAwMoH3ZVOtFg-4" value="Set bool to false" style="rounded=0;whiteSpace=wrap;html=1;fillColor=#dae8fc;strokeColor=#6c8ebf;fontStyle=1" parent="1" vertex="1">
          <mxGeometry x="4216.5" y="201" width="120" height="60" as="geometry" />
        </mxCell>
        <mxCell id="Dg47NCKiAwMoH3ZVOtFg-5" value="Output: boolMovieFound" style="rounded=0;whiteSpace=wrap;html=1;fillColor=#e1d5e7;strokeColor=#9673a6;fontStyle=1" parent="1" vertex="1">
          <mxGeometry x="4216.5" y="261" width="120" height="40" as="geometry" />
        </mxCell>
        <mxCell id="Dg47NCKiAwMoH3ZVOtFg-6" value="Studio" style="rounded=0;whiteSpace=wrap;html=1;strokeColor=#0e8088;fontStyle=1;fillColor=#b0e3e6;" parent="1" vertex="1">
          <mxGeometry x="4216.5" y="161" width="120" height="40" as="geometry" />
        </mxCell>
        <mxCell id="Dg47NCKiAwMoH3ZVOtFg-7" value="" style="endArrow=classic;html=1;rounded=0;fontSize=12;startSize=8;endSize=8;curved=1;entryX=0;entryY=0;entryDx=0;entryDy=0;exitX=1;exitY=1;exitDx=0;exitDy=0;" parent="1" edge="1">
          <mxGeometry width="50" height="50" relative="1" as="geometry">
            <mxPoint x="4336.5" y="201" as="sourcePoint" />
            <mxPoint x="4421.5" y="201" as="targetPoint" />
          </mxGeometry>
        </mxCell>
        <mxCell id="Dg47NCKiAwMoH3ZVOtFg-10" value="Set bool to true" style="rounded=0;whiteSpace=wrap;html=1;fillColor=#dae8fc;strokeColor=#6c8ebf;fontStyle=1" parent="1" vertex="1">
          <mxGeometry x="4216.5" y="31" width="120" height="60" as="geometry" />
        </mxCell>
        <mxCell id="Dg47NCKiAwMoH3ZVOtFg-11" value="Output: boolMovieFound" style="rounded=0;whiteSpace=wrap;html=1;fillColor=#e1d5e7;strokeColor=#9673a6;fontStyle=1" parent="1" vertex="1">
          <mxGeometry x="4216.5" y="91" width="120" height="40" as="geometry" />
        </mxCell>
        <mxCell id="Dg47NCKiAwMoH3ZVOtFg-12" value="Studio" style="rounded=0;whiteSpace=wrap;html=1;strokeColor=#0e8088;fontStyle=1;fillColor=#b0e3e6;" parent="1" vertex="1">
          <mxGeometry x="4216.5" y="-9" width="120" height="40" as="geometry" />
        </mxCell>
        <mxCell id="Dg47NCKiAwMoH3ZVOtFg-15" value="" style="endArrow=classic;html=1;rounded=0;fontSize=12;startSize=8;endSize=8;curved=1;entryX=0;entryY=0;entryDx=0;entryDy=0;exitX=1;exitY=1;exitDx=0;exitDy=0;" parent="1" edge="1">
          <mxGeometry width="50" height="50" relative="1" as="geometry">
            <mxPoint x="4336" y="31" as="sourcePoint" />
            <mxPoint x="4421" y="31" as="targetPoint" />
          </mxGeometry>
        </mxCell>
        <mxCell id="m0sqq8oYYI52rFtaW6na-1" value="IN:&lt;div&gt;&lt;span style=&quot;color: rgb(0, 0, 0); font-weight: 700;&quot;&gt;in_strMovieNotFoundError&lt;/span&gt;&lt;span style=&quot;color: rgb(0, 0, 0); font-weight: 700; background-color: initial;&quot;&gt;&lt;br&gt;&lt;/span&gt;&lt;/div&gt;&lt;div&gt;&lt;span style=&quot;color: rgb(0, 0, 0); font-weight: 700;&quot;&gt;(out_dtTemplateTable =)&amp;nbsp;&lt;/span&gt;&lt;span style=&quot;color: rgb(0, 0, 0); font-weight: 700; background-color: initial;&quot;&gt;io_dtMoviesOutputTable&lt;/span&gt;&lt;/div&gt;&lt;div&gt;&lt;span style=&quot;color: rgb(0, 0, 0); font-weight: 700;&quot;&gt;in_&lt;/span&gt;&lt;span style=&quot;background-color: initial; color: rgb(0, 0, 0); font-weight: 700;&quot;&gt;dtMoviesInputTable&lt;/span&gt;&lt;span style=&quot;color: rgb(0, 0, 0); font-weight: 700;&quot;&gt;&lt;br&gt;&lt;/span&gt;&lt;/div&gt;" style="rounded=0;whiteSpace=wrap;html=1;fillColor=#f5f5f5;strokeColor=#666666;fontColor=#333333;dashed=1;fontStyle=0" parent="1" vertex="1">
          <mxGeometry x="2827" y="135" width="290.5" height="92" as="geometry" />
        </mxCell>
        <mxCell id="xNTR1su66FMKpkVLmKmw-1" value="OUT:&lt;div&gt;&lt;span style=&quot;color: rgb(0, 0, 0); font-weight: 700;&quot;&gt;io_dtMoviesOutputTable&lt;/span&gt;&lt;br&gt;&lt;/div&gt;&lt;div&gt;&lt;span style=&quot;color: rgb(0, 0, 0); font-weight: 700;&quot;&gt;&lt;br&gt;&lt;/span&gt;&lt;/div&gt;" style="rounded=0;whiteSpace=wrap;html=1;fillColor=#f5f5f5;strokeColor=#666666;fontColor=#333333;dashed=1;fontStyle=0" parent="1" vertex="1">
          <mxGeometry x="5199" y="102" width="159" height="62" as="geometry" />
        </mxCell>
        <mxCell id="-yMUMj720hPRAHRGrb4_-1" value="Input: in_&lt;span style=&quot;background-color: initial;&quot;&gt;dtMoviesInputTable&lt;/span&gt;" style="rounded=0;whiteSpace=wrap;html=1;fillColor=#d5e8d4;strokeColor=#82b366;fontStyle=1" parent="1" vertex="1">
          <mxGeometry x="3152" y="89" width="131" height="40" as="geometry" />
        </mxCell>
        <mxCell id="xrKfMdHggc0RnbOv_2-S-1" value="Get current movie grade from input datatable" style="rounded=0;whiteSpace=wrap;html=1;fillColor=#dae8fc;strokeColor=#6c8ebf;fontStyle=1" parent="1" vertex="1">
          <mxGeometry x="3594" y="31" width="131" height="60" as="geometry" />
        </mxCell>
        <mxCell id="xrKfMdHggc0RnbOv_2-S-2" value="Excel" style="rounded=0;whiteSpace=wrap;html=1;strokeColor=#0e8088;fontStyle=1;fillColor=#b0e3e6;" parent="1" vertex="1">
          <mxGeometry x="3594" y="-9" width="131" height="40" as="geometry" />
        </mxCell>
        <mxCell id="xrKfMdHggc0RnbOv_2-S-3" value="Output: strMovieGrade" style="rounded=0;whiteSpace=wrap;html=1;fillColor=#e1d5e7;strokeColor=#9673a6;fontStyle=1" parent="1" vertex="1">
          <mxGeometry x="3594" y="132" width="131" height="40" as="geometry" />
        </mxCell>
        <mxCell id="xrKfMdHggc0RnbOv_2-S-4" value="Input: in_&lt;span style=&quot;background-color: initial;&quot;&gt;dtMoviesInputTable&lt;/span&gt;" style="rounded=0;whiteSpace=wrap;html=1;fillColor=#d5e8d4;strokeColor=#82b366;fontStyle=1" parent="1" vertex="1">
          <mxGeometry x="3594" y="91" width="131" height="40" as="geometry" />
        </mxCell>
        <mxCell id="DvdwnFhQGpSJtkvbD6Ex-1" style="edgeStyle=none;curved=1;rounded=0;orthogonalLoop=1;jettySize=auto;html=1;entryX=0;entryY=0;entryDx=0;entryDy=0;fontSize=12;startSize=8;endSize=8;" parent="1" edge="1">
          <mxGeometry relative="1" as="geometry">
            <mxPoint x="3509" y="30.52" as="sourcePoint" />
            <mxPoint x="3594" y="30.52" as="targetPoint" />
          </mxGeometry>
        </mxCell>
        <mxCell id="6d7cDwejPf6sAjxoAwDU-1" value="Search Movie Component" style="swimlane;" parent="1" vertex="1">
          <mxGeometry x="3122" y="-113" width="824" height="340" as="geometry" />
        </mxCell>
        <mxCell id="6d7cDwejPf6sAjxoAwDU-2" value="Rate Movie Component" style="swimlane;whiteSpace=wrap;html=1;" parent="1" vertex="1">
          <mxGeometry x="4390" y="-165" width="1010" height="332" as="geometry" />
        </mxCell>
      </root>
    </mxGraphModel>
  </diagram>
  <diagram id="57PPhPq7-QRcSlqKobF7" name="Read and save movie info">
    <mxGraphModel dx="1834" dy="494" grid="0" gridSize="10" guides="1" tooltips="1" connect="1" arrows="1" fold="1" page="0" pageScale="1" pageWidth="850" pageHeight="1100" math="0" shadow="0">
      <root>
        <mxCell id="0" />
        <mxCell id="1" parent="0" />
        <UserObject label="Start" link="data:page/id,0IVJ0yKcwo-F8aywClvS" id="WWdrRGpbHJSgVsKMQHDC-1">
          <mxCell style="ellipse;whiteSpace=wrap;html=1;aspect=fixed;fontStyle=1;fillColor=#fff2cc;strokeColor=#d6b656;" parent="1" vertex="1">
            <mxGeometry x="-48.5" y="523" width="80" height="80" as="geometry" />
          </mxCell>
        </UserObject>
        <mxCell id="WWdrRGpbHJSgVsKMQHDC-2" style="edgeStyle=none;curved=1;rounded=0;orthogonalLoop=1;jettySize=auto;html=1;entryX=0;entryY=0;entryDx=0;entryDy=0;fontSize=12;startSize=8;endSize=8;" parent="1" edge="1">
          <mxGeometry relative="1" as="geometry">
            <mxPoint x="31.5" y="562.62" as="sourcePoint" />
            <mxPoint x="116.5" y="562.62" as="targetPoint" />
          </mxGeometry>
        </mxCell>
        <mxCell id="WWdrRGpbHJSgVsKMQHDC-3" value="Get movie description" style="rounded=0;whiteSpace=wrap;html=1;fillColor=#dae8fc;strokeColor=#6c8ebf;fontStyle=1" parent="1" vertex="1">
          <mxGeometry x="117.5" y="563" width="135" height="60" as="geometry" />
        </mxCell>
        <mxCell id="WWdrRGpbHJSgVsKMQHDC-4" value="Edge" style="rounded=0;whiteSpace=wrap;html=1;strokeColor=#0e8088;fontStyle=1;fillColor=#b0e3e6;" parent="1" vertex="1">
          <mxGeometry x="117.5" y="523" width="135" height="40" as="geometry" />
        </mxCell>
        <mxCell id="WWdrRGpbHJSgVsKMQHDC-5" value="Output: strMovieDescription" style="rounded=0;whiteSpace=wrap;html=1;fillColor=#e1d5e7;strokeColor=#9673a6;fontStyle=1" parent="1" vertex="1">
          <mxGeometry x="117.5" y="623" width="135" height="40" as="geometry" />
        </mxCell>
        <UserObject label="End" link="data:page/id,0IVJ0yKcwo-F8aywClvS" id="WWdrRGpbHJSgVsKMQHDC-37">
          <mxCell style="ellipse;whiteSpace=wrap;html=1;aspect=fixed;fillColor=#fff2cc;strokeColor=#d6b656;fontStyle=1" parent="1" vertex="1">
            <mxGeometry x="786" y="525" width="80" height="80" as="geometry" />
          </mxCell>
        </UserObject>
        <mxCell id="S1e_VkuzPzJ-_NriPPxX-1" style="edgeStyle=none;curved=1;rounded=0;orthogonalLoop=1;jettySize=auto;html=1;entryX=0;entryY=0;entryDx=0;entryDy=0;fontSize=12;startSize=8;endSize=8;" parent="1" edge="1">
          <mxGeometry relative="1" as="geometry">
            <mxPoint x="480.5" y="562.23" as="sourcePoint" />
            <mxPoint x="565.5" y="562.23" as="targetPoint" />
          </mxGeometry>
        </mxCell>
        <mxCell id="S1e_VkuzPzJ-_NriPPxX-2" value="Extract remaining movie info in a datatable" style="rounded=0;whiteSpace=wrap;html=1;fillColor=#dae8fc;strokeColor=#6c8ebf;fontStyle=1" parent="1" vertex="1">
          <mxGeometry x="565.5" y="563" width="135" height="60" as="geometry" />
        </mxCell>
        <mxCell id="S1e_VkuzPzJ-_NriPPxX-3" value="Edge" style="rounded=0;whiteSpace=wrap;html=1;strokeColor=#0e8088;fontStyle=1;fillColor=#b0e3e6;" parent="1" vertex="1">
          <mxGeometry x="565.5" y="523" width="135" height="40" as="geometry" />
        </mxCell>
        <mxCell id="S1e_VkuzPzJ-_NriPPxX-4" value="Output: dtExtractedInfo" style="rounded=0;whiteSpace=wrap;html=1;fillColor=#e1d5e7;strokeColor=#9673a6;fontStyle=1" parent="1" vertex="1">
          <mxGeometry x="565.5" y="623" width="135" height="40" as="geometry" />
        </mxCell>
        <mxCell id="IlpzT1-nhHFTOpeYoLbt-1" style="edgeStyle=none;curved=1;rounded=0;orthogonalLoop=1;jettySize=auto;html=1;entryX=0;entryY=0;entryDx=0;entryDy=0;fontSize=12;startSize=8;endSize=8;" parent="1" edge="1">
          <mxGeometry relative="1" as="geometry">
            <mxPoint x="700.5" y="563" as="sourcePoint" />
            <mxPoint x="785.5" y="563" as="targetPoint" />
          </mxGeometry>
        </mxCell>
        <mxCell id="ZLRHc2MSlUC2JaNA6zOb-2" value="Insert movie description in output datatable" style="rounded=0;whiteSpace=wrap;html=1;fillColor=#dae8fc;strokeColor=#6c8ebf;fontStyle=1" parent="1" vertex="1">
          <mxGeometry x="336.5" y="563" width="144" height="60" as="geometry" />
        </mxCell>
        <mxCell id="ZLRHc2MSlUC2JaNA6zOb-3" value="Input:&lt;div&gt;in_dtMoviesOutputTable&lt;br&gt;&lt;/div&gt;&lt;div&gt;&amp;nbsp;strMovieDescription&lt;/div&gt;" style="rounded=0;whiteSpace=wrap;html=1;fillColor=#d5e8d4;strokeColor=#82b366;fontStyle=1" parent="1" vertex="1">
          <mxGeometry x="336.5" y="623" width="144" height="44" as="geometry" />
        </mxCell>
        <mxCell id="ZLRHc2MSlUC2JaNA6zOb-4" value="Studio" style="rounded=0;whiteSpace=wrap;html=1;strokeColor=#0e8088;fontStyle=1;fillColor=#b0e3e6;" parent="1" vertex="1">
          <mxGeometry x="336.5" y="523" width="144" height="40" as="geometry" />
        </mxCell>
        <mxCell id="ZLRHc2MSlUC2JaNA6zOb-5" style="edgeStyle=none;curved=1;rounded=0;orthogonalLoop=1;jettySize=auto;html=1;entryX=0;entryY=0;entryDx=0;entryDy=0;fontSize=12;startSize=8;endSize=8;" parent="1" edge="1">
          <mxGeometry relative="1" as="geometry">
            <mxPoint x="252.5" y="563" as="sourcePoint" />
            <mxPoint x="337.5" y="563" as="targetPoint" />
          </mxGeometry>
        </mxCell>
        <mxCell id="4zDWXuJRsX4ysaMDYMvZ-1" value="IN:&lt;div&gt;&lt;span style=&quot;color: rgb(0, 0, 0); font-weight: 700;&quot;&gt;in_dtMoviesOutputTable&lt;/span&gt;&lt;br&gt;&lt;/div&gt;&lt;div&gt;&lt;span style=&quot;color: rgb(0, 0, 0); font-weight: 700;&quot;&gt;&lt;br&gt;&lt;/span&gt;&lt;/div&gt;" style="rounded=0;whiteSpace=wrap;html=1;fillColor=#f5f5f5;strokeColor=#666666;fontColor=#333333;dashed=1;fontStyle=0" parent="1" vertex="1">
          <mxGeometry x="-93" y="636" width="159" height="62" as="geometry" />
        </mxCell>
        <mxCell id="NqGsGpUoImck_eCs4KEo-1" value="OUT:&lt;div&gt;&lt;span style=&quot;color: rgb(0, 0, 0); font-weight: 700;&quot;&gt;out_dtMoviesOutputTable&lt;/span&gt;&lt;br&gt;&lt;/div&gt;&lt;div&gt;&lt;span style=&quot;color: rgb(0, 0, 0); font-weight: 700;&quot;&gt;&lt;br&gt;&lt;/span&gt;&lt;/div&gt;" style="rounded=0;whiteSpace=wrap;html=1;fillColor=#f5f5f5;strokeColor=#666666;fontColor=#333333;dashed=1;fontStyle=0" parent="1" vertex="1">
          <mxGeometry x="750" y="638" width="159" height="62" as="geometry" />
        </mxCell>
      </root>
    </mxGraphModel>
  </diagram>
  <diagram id="w8vVBX8NN2MA-V3uxlel" name="Close opened applications">
    <mxGraphModel dx="1434" dy="494" grid="0" gridSize="10" guides="1" tooltips="1" connect="1" arrows="1" fold="1" page="0" pageScale="1" pageWidth="850" pageHeight="1100" math="0" shadow="0">
      <root>
        <mxCell id="0" />
        <mxCell id="1" parent="0" />
        <UserObject label="Start" link="data:page/id,g6Ii-7FAYiTRQ6rAsWxS" id="QQQnDytJIfeKnoSQs1IL-1">
          <mxCell style="ellipse;whiteSpace=wrap;html=1;aspect=fixed;fontStyle=1;fillColor=#fff2cc;strokeColor=#d6b656;" parent="1" vertex="1">
            <mxGeometry x="428" y="479" width="80" height="80" as="geometry" />
          </mxCell>
        </UserObject>
        <mxCell id="QQQnDytJIfeKnoSQs1IL-55" style="edgeStyle=none;curved=1;rounded=0;orthogonalLoop=1;jettySize=auto;html=1;entryX=0;entryY=0;entryDx=0;entryDy=0;fontSize=12;startSize=8;endSize=8;" parent="1" edge="1">
          <mxGeometry relative="1" as="geometry">
            <mxPoint x="1747" y="509.76" as="sourcePoint" />
            <mxPoint x="1832" y="509.76" as="targetPoint" />
          </mxGeometry>
        </mxCell>
        <mxCell id="QQQnDytJIfeKnoSQs1IL-56" value="Close Outlook application" style="rounded=0;whiteSpace=wrap;html=1;fillColor=#dae8fc;strokeColor=#6c8ebf;fontStyle=1" parent="1" vertex="1">
          <mxGeometry x="1833" y="510" width="120" height="60" as="geometry" />
        </mxCell>
        <mxCell id="QQQnDytJIfeKnoSQs1IL-57" value="Outlook" style="rounded=0;whiteSpace=wrap;html=1;strokeColor=#0e8088;fontStyle=1;fillColor=#b0e3e6;" parent="1" vertex="1">
          <mxGeometry x="1833" y="470" width="120" height="40" as="geometry" />
        </mxCell>
        <mxCell id="QQQnDytJIfeKnoSQs1IL-58" value="Close Edge browser" style="rounded=0;whiteSpace=wrap;html=1;fillColor=#dae8fc;strokeColor=#6c8ebf;fontStyle=1" parent="1" vertex="1">
          <mxGeometry x="2038" y="512" width="120" height="60" as="geometry" />
        </mxCell>
        <mxCell id="QQQnDytJIfeKnoSQs1IL-59" value="Edge" style="rounded=0;whiteSpace=wrap;html=1;strokeColor=#0e8088;fontStyle=1;fillColor=#b0e3e6;" parent="1" vertex="1">
          <mxGeometry x="2038" y="472" width="120" height="40" as="geometry" />
        </mxCell>
        <mxCell id="QQQnDytJIfeKnoSQs1IL-60" style="edgeStyle=none;curved=1;rounded=0;orthogonalLoop=1;jettySize=auto;html=1;entryX=0;entryY=0;entryDx=0;entryDy=0;fontSize=12;startSize=8;endSize=8;" parent="1" edge="1">
          <mxGeometry relative="1" as="geometry">
            <mxPoint x="1953" y="510" as="sourcePoint" />
            <mxPoint x="2038" y="510" as="targetPoint" />
          </mxGeometry>
        </mxCell>
        <UserObject label="End" link="data:page/id,g6Ii-7FAYiTRQ6rAsWxS" id="QQQnDytJIfeKnoSQs1IL-61">
          <mxCell style="ellipse;whiteSpace=wrap;html=1;aspect=fixed;fillColor=#fff2cc;strokeColor=#d6b656;fontStyle=1" parent="1" vertex="1">
            <mxGeometry x="2243" y="472" width="80" height="80" as="geometry" />
          </mxCell>
        </UserObject>
        <mxCell id="QQQnDytJIfeKnoSQs1IL-62" style="edgeStyle=none;curved=1;rounded=0;orthogonalLoop=1;jettySize=auto;html=1;entryX=0;entryY=0;entryDx=0;entryDy=0;fontSize=12;startSize=8;endSize=8;" parent="1" edge="1">
          <mxGeometry relative="1" as="geometry">
            <mxPoint x="2158" y="511.65999999999997" as="sourcePoint" />
            <mxPoint x="2243" y="511.65999999999997" as="targetPoint" />
          </mxGeometry>
        </mxCell>
        <mxCell id="NsiBaRqDt2CuPzM439r2-1" value="Insert data table in output workbook" style="rounded=0;whiteSpace=wrap;html=1;fillColor=#dae8fc;strokeColor=#6c8ebf;fontStyle=1" parent="1" vertex="1">
          <mxGeometry x="592" y="521" width="163" height="60" as="geometry" />
        </mxCell>
        <mxCell id="NsiBaRqDt2CuPzM439r2-2" value="Input:&lt;div&gt;&lt;div style=&quot;color: rgb(51, 51, 51); font-weight: 400;&quot;&gt;&lt;span style=&quot;color: rgb(0, 0, 0); font-weight: 700;&quot;&gt;in_dtMoviesOutputTable&lt;/span&gt;&lt;br&gt;&lt;/div&gt;&lt;div style=&quot;color: rgb(51, 51, 51); font-weight: 400;&quot;&gt;&lt;span style=&quot;color: rgb(0, 0, 0); font-weight: 700;&quot;&gt;in_strOutputWorkbookPath&lt;/span&gt;&lt;/div&gt;&lt;/div&gt;" style="rounded=0;whiteSpace=wrap;html=1;fillColor=#d5e8d4;strokeColor=#82b366;fontStyle=1" parent="1" vertex="1">
          <mxGeometry x="592" y="581" width="163" height="52" as="geometry" />
        </mxCell>
        <mxCell id="NsiBaRqDt2CuPzM439r2-3" value="Excel" style="rounded=0;whiteSpace=wrap;html=1;strokeColor=#0e8088;fontStyle=1;fillColor=#b0e3e6;" parent="1" vertex="1">
          <mxGeometry x="592" y="481" width="163" height="40" as="geometry" />
        </mxCell>
        <UserObject label="End" link="data:page/id,jKmA2GizDWWf2xkBfZPt" id="NsiBaRqDt2CuPzM439r2-4">
          <mxCell style="ellipse;whiteSpace=wrap;html=1;aspect=fixed;fillColor=#fff2cc;strokeColor=#d6b656;fontStyle=1" parent="1" vertex="1">
            <mxGeometry x="1087" y="481" width="80" height="80" as="geometry" />
          </mxCell>
        </UserObject>
        <mxCell id="NsiBaRqDt2CuPzM439r2-5" style="edgeStyle=none;curved=1;rounded=0;orthogonalLoop=1;jettySize=auto;html=1;entryX=0;entryY=0;entryDx=0;entryDy=0;fontSize=12;startSize=8;endSize=8;" parent="1" edge="1">
          <mxGeometry relative="1" as="geometry">
            <mxPoint x="507" y="520.31" as="sourcePoint" />
            <mxPoint x="592" y="520.31" as="targetPoint" />
          </mxGeometry>
        </mxCell>
        <mxCell id="NsiBaRqDt2CuPzM439r2-9" style="edgeStyle=none;curved=1;rounded=0;orthogonalLoop=1;jettySize=auto;html=1;entryX=0;entryY=0;entryDx=0;entryDy=0;fontSize=12;startSize=8;endSize=8;" parent="1" edge="1">
          <mxGeometry relative="1" as="geometry">
            <mxPoint x="1002" y="521" as="sourcePoint" />
            <mxPoint x="1087" y="521" as="targetPoint" />
          </mxGeometry>
        </mxCell>
        <mxCell id="UbodFB7IcYmmaC_Wed97-1" value="Send Email through Outlook" style="rounded=0;whiteSpace=wrap;html=1;fillColor=#dae8fc;strokeColor=#6c8ebf;fontStyle=1" parent="1" vertex="1">
          <mxGeometry x="841" y="521" width="161" height="60" as="geometry" />
        </mxCell>
        <mxCell id="UbodFB7IcYmmaC_Wed97-2" value="Input:&amp;nbsp;&lt;div&gt;in_strRecipientAdress&lt;br&gt;&lt;/div&gt;&lt;div&gt;in_strEmailSubject&lt;br&gt;&lt;/div&gt;&lt;div&gt;in_strOutputWorkbookPath&lt;br&gt;&lt;/div&gt;" style="rounded=0;whiteSpace=wrap;html=1;fillColor=#d5e8d4;strokeColor=#82b366;fontStyle=1" parent="1" vertex="1">
          <mxGeometry x="841" y="581" width="161" height="63" as="geometry" />
        </mxCell>
        <mxCell id="UbodFB7IcYmmaC_Wed97-3" value="Outlook" style="rounded=0;whiteSpace=wrap;html=1;strokeColor=#0e8088;fontStyle=1;fillColor=#b0e3e6;" parent="1" vertex="1">
          <mxGeometry x="841" y="481" width="161" height="40" as="geometry" />
        </mxCell>
        <mxCell id="UbodFB7IcYmmaC_Wed97-6" value="IN:&lt;div&gt;&lt;span style=&quot;color: rgb(0, 0, 0); font-weight: 700;&quot;&gt;in_dtMoviesOutputTable&lt;/span&gt;&lt;br&gt;&lt;/div&gt;&lt;div&gt;&lt;span style=&quot;color: rgb(0, 0, 0); font-weight: 700;&quot;&gt;in_strOutputWorkbookPath&lt;/span&gt;&lt;span style=&quot;color: rgb(0, 0, 0); font-weight: 700;&quot;&gt;&lt;br&gt;&lt;/span&gt;&lt;/div&gt;&lt;div&gt;&lt;div style=&quot;color: rgb(0, 0, 0); font-weight: 700;&quot;&gt;in_strRecipientAdress&lt;br&gt;&lt;/div&gt;&lt;div style=&quot;color: rgb(0, 0, 0); font-weight: 700;&quot;&gt;in_strEmailSubject&lt;/div&gt;&lt;/div&gt;" style="rounded=0;whiteSpace=wrap;html=1;fillColor=#f5f5f5;strokeColor=#666666;fontColor=#333333;dashed=1;fontStyle=0" parent="1" vertex="1">
          <mxGeometry x="369" y="581" width="168" height="84" as="geometry" />
        </mxCell>
        <mxCell id="TRbKcPjbSoma3UwHTvQ7-1" style="edgeStyle=none;curved=1;rounded=0;orthogonalLoop=1;jettySize=auto;html=1;entryX=0;entryY=0;entryDx=0;entryDy=0;fontSize=12;startSize=8;endSize=8;" parent="1" edge="1">
          <mxGeometry relative="1" as="geometry">
            <mxPoint x="756" y="521" as="sourcePoint" />
            <mxPoint x="841" y="521" as="targetPoint" />
          </mxGeometry>
        </mxCell>
      </root>
    </mxGraphModel>
  </diagram>
</mxfile>
